<svg xmlns="http://www.w3.org/2000/svg" width="218.059" height="65.782" viewBox="0 0 218.059 65.782">
  <g id="Group_211" data-name="Group 211" transform="translate(-698.878 -357)">
    <g id="Group_208" data-name="Group 208" transform="translate(698.878 357)">
      <path id="Path_83" data-name="Path 83" d="M32.891,0A32.891,32.891,0,1,1,0,32.891,32.891,32.891,0,0,1,32.891,0Z" transform="translate(0)" fill="#24408e"/>
      <path id="Exclusion_1" data-name="Exclusion 1" d="M17.826,43.462h0l-1.048-1.517a29.943,29.943,0,0,1-1.7-2.734,7.284,7.284,0,0,1-1.073-3.049,3.019,3.019,0,0,1,.9-2.039,7.1,7.1,0,0,1,1.651-1.282V27.779a3.852,3.852,0,0,1-1.828-1.367,3.757,3.757,0,0,1-.718-2.219,3.82,3.82,0,1,1,7.64,0,3.757,3.757,0,0,1-.718,2.219A3.853,3.853,0,0,1,19.1,27.779v5.063a7.106,7.106,0,0,1,1.651,1.282,3.02,3.02,0,0,1,.9,2.039,7.286,7.286,0,0,1-1.073,3.049,29.941,29.941,0,0,1-1.7,2.734l-1.048,1.517Zm21.251-7.1h0l-.05-.012h-.005a34.578,34.578,0,0,1-5.34-1.709,31.565,31.565,0,0,1-4.38-2.186,22.506,22.506,0,0,1-4.272-3.3,24.46,24.46,0,0,1-1.666-1.887,6.258,6.258,0,0,0,.828-3.078A6.386,6.386,0,0,0,19.1,17.955V16.931l.2.064.028.009a47.886,47.886,0,0,1,5.672,2.2,24.11,24.11,0,0,1,6.794,4.556,26.8,26.8,0,0,1,3.4,4.193,31.584,31.584,0,0,1,2.235,4.006,31.156,31.156,0,0,1,1.241,3.058c.244.712.383,1.215.416,1.348Zm1.885-11.7h0l-.533-.009a28.549,28.549,0,0,1-4.9-.636,26.974,26.974,0,0,0-1.853-2.064C29.213,17.493,22.4,15.316,19.837,14.5l-.2-.065c-.16-.265-.313-.548-.461-.821l0-.006-.069-.127v-1.9c2.9.282,8.362,1.1,12.308,3.412A24.787,24.787,0,0,1,35.5,18.017a30.435,30.435,0,0,1,4.835,5.635c.419.635.624,1.009.625,1.011h0ZM11.5,23.795h0L8.913,21.208v-.836h3.872A6.355,6.355,0,0,0,11.5,23.795ZM6.367,18.662h0L.49,12.733H6.367v5.928Zm9.967-.836H8.913V10.405l7.421,7.421ZM36.17,15.169a26.34,26.34,0,0,0-3.39-2.378C28.3,10.166,22.286,9.306,19.1,9.026V7.039a28.772,28.772,0,0,1,4.256-.323c1.162,0,2.591.071,3.922.2a25.726,25.726,0,0,1,3.748.583,24.876,24.876,0,0,1,4.7,1.769,29.213,29.213,0,0,1,3.679,2.17,25.326,25.326,0,0,1,3.439,2.8l-.311.095c-.392.1-1.22.3-2.365.481a30.217,30.217,0,0,1-4,.358Zm-19.618-.725h0L6.465,4.356,16.553.992V14.444h0ZM8.694,10.186H0L4.321,5.813l4.373,4.373Zm27.575-3.5h0a27.619,27.619,0,0,0-4.6-1.656,39.089,39.089,0,0,0-8.314-.862,30.83,30.83,0,0,0-4.256.3V1.558A27.653,27.653,0,0,1,28.013,0a29.611,29.611,0,0,1,5.549.566,41.327,41.327,0,0,1,4.871,1.261c1.519.49,2.753.978,3.521,1.3.906.381,1.424.641,1.5.688l-.245.151a30.674,30.674,0,0,1-6.941,2.72Z" transform="translate(11.158 17.327)" fill="#fff"/>
    </g>
    <g id="Group_212" data-name="Group 212" transform="translate(785.937 370)">
      <text id="Chief_Net" data-name="Chief Net" transform="translate(65 22)" fill="#3c3c3c" font-size="30" font-family="Aharoni-Bold, Aharoni" font-weight="700"><tspan x="-65.229" y="0">Chief Net</tspan></text>
      <text id="מנהלים_משאבי_אנוש" data-name="מנהלים משאבי אנוש" transform="translate(61 43)" fill="#3c3c3c" font-size="17" font-family="Aharoni-Bold, Aharoni" font-weight="700"><tspan x="-60.691" y="0">מנהלים משאבי אנוש</tspan></text>
    </g>
  </g>
</svg>
